<svg width="64" height="73" viewBox="0 0 64 73" fill="none" xmlns="http://www.w3.org/2000/svg">
<path d="M0 65.4986C0 69.2393 3.03496 72.2743 6.77571 72.2743H56.4643C60.205 72.2743 63.24 69.2393 63.24 65.4986V27.1029H0V65.4986ZM45.1714 37.8311C45.1714 36.8994 45.9337 36.1371 46.8654 36.1371H52.5118C53.4434 36.1371 54.2057 36.8994 54.2057 37.8311V43.4775C54.2057 44.4092 53.4434 45.1714 52.5118 45.1714H46.8654C45.9337 45.1714 45.1714 44.4092 45.1714 43.4775V37.8311ZM45.1714 55.8996C45.1714 54.968 45.9337 54.2057 46.8654 54.2057H52.5118C53.4434 54.2057 54.2057 54.968 54.2057 55.8996V61.5461C54.2057 62.4777 53.4434 63.24 52.5118 63.24H46.8654C45.9337 63.24 45.1714 62.4777 45.1714 61.5461V55.8996ZM27.1029 37.8311C27.1029 36.8994 27.8651 36.1371 28.7968 36.1371H34.4432C35.3749 36.1371 36.1371 36.8994 36.1371 37.8311V43.4775C36.1371 44.4092 35.3749 45.1714 34.4432 45.1714H28.7968C27.8651 45.1714 27.1029 44.4092 27.1029 43.4775V37.8311ZM27.1029 55.8996C27.1029 54.968 27.8651 54.2057 28.7968 54.2057H34.4432C35.3749 54.2057 36.1371 54.968 36.1371 55.8996V61.5461C36.1371 62.4777 35.3749 63.24 34.4432 63.24H28.7968C27.8651 63.24 27.1029 62.4777 27.1029 61.5461V55.8996ZM9.03429 37.8311C9.03429 36.8994 9.79655 36.1371 10.7282 36.1371H16.3746C17.3063 36.1371 18.0686 36.8994 18.0686 37.8311V43.4775C18.0686 44.4092 17.3063 45.1714 16.3746 45.1714H10.7282C9.79655 45.1714 9.03429 44.4092 9.03429 43.4775V37.8311ZM9.03429 55.8996C9.03429 54.968 9.79655 54.2057 10.7282 54.2057H16.3746C17.3063 54.2057 18.0686 54.968 18.0686 55.8996V61.5461C18.0686 62.4777 17.3063 63.24 16.3746 63.24H10.7282C9.79655 63.24 9.03429 62.4777 9.03429 61.5461V55.8996ZM56.4643 9.03429H49.6886V2.25857C49.6886 1.01636 48.6722 0 47.43 0H42.9129C41.6706 0 40.6543 1.01636 40.6543 2.25857V9.03429H22.5857V2.25857C22.5857 1.01636 21.5694 0 20.3271 0H15.81C14.5678 0 13.5514 1.01636 13.5514 2.25857V9.03429H6.77571C3.03496 9.03429 0 12.0692 0 15.81V22.5857H63.24V15.81C63.24 12.0692 60.205 9.03429 56.4643 9.03429Z" fill="#44AFE5"/>
</svg>
